<?xml version="1.0" encoding="UTF-8" standalone="no"?>
<!-- Created with Inkscape (http://www.inkscape.org/) -->

<svg
   width="83.134903mm"
   height="83.134903mm"
   viewBox="0 0 83.134903 83.134903"
   version="1.1"
   id="svg1"
   sodipodi:docname="fall.svg"
   inkscape:version="1.4.3 (0d15f75, 2025-12-25)"
   xmlns:inkscape="http://www.inkscape.org/namespaces/inkscape"
   xmlns:sodipodi="http://sodipodi.sourceforge.net/DTD/sodipodi-0.dtd"
   xmlns="http://www.w3.org/2000/svg"
   xmlns:svg="http://www.w3.org/2000/svg">
  <sodipodi:namedview
     id="namedview1"
     pagecolor="#ffffff"
     bordercolor="#000000"
     borderopacity="0.25"
     inkscape:showpageshadow="2"
     inkscape:pageopacity="0.0"
     inkscape:pagecheckerboard="0"
     inkscape:deskcolor="#d1d1d1"
     inkscape:document-units="mm"
     inkscape:zoom="1.3772587"
     inkscape:cx="307.49488"
     inkscape:cy="205.84368"
     inkscape:window-width="1920"
     inkscape:window-height="991"
     inkscape:window-x="-9"
     inkscape:window-y="-9"
     inkscape:window-maximized="1"
     inkscape:current-layer="layer1" />
  <defs
     id="defs1" />
  <g
     inkscape:label="Livello 1"
     inkscape:groupmode="layer"
     id="layer1"
     transform="translate(-0.13584134,4.6186056)">
    <path
       d="m 40.574503,3.6388189 c -1.9687,0.02647 -3.89324,0.169866 -5.61774,0.445967 C 19.186343,6.6097109 6.9194835,19.406379 5.0769335,35.255493 c -0.52688,4.532042 0.0732,13.358688 0.96893,14.254427 0.15201,0.152012 -0.0693,-2.489966 -0.40876,-4.878255 -0.51564,-3.62822 -0.021,-9.866757 1.02784,-12.964583 0.38448,-1.13566 0.21672,0.715545 -0.26355,2.910417 -0.57594,2.632154 -0.4693,9.749674 0.20051,13.396081 0.49663,2.703674 1.55396,5.985632 1.8371,5.702494 0.0548,-0.05485 -0.0747,-0.517205 -0.28784,-1.027327 -2.26468,-5.420152 -2.38418,-15.005626 -0.2775,-22.304582 C 16.094353,1.8621539 54.206073,-3.7381927 70.893073,21.083749 c 10.22978,15.216799 6.98053,35.235083 -7.85741,48.407381 -0.51809,0.459931 -0.78945,0.72602 -0.7891,0.766878 3e-5,2.43e-4 -4e-5,0.0013 0,0.0015 l 5.2e-4,5.17e-4 v 5.17e-4 l 5.2e-4,5.17e-4 5.2e-4,5.16e-4 v 5.17e-4 c 1.8e-4,1.13e-4 10e-4,4.22e-4 0.002,5.17e-4 l 5.1e-4,5.17e-4 c 0.0221,0.0051 0.13368,-0.06365 0.33848,-0.212391 0.55459,-0.402759 1.17403,-0.756855 1.37615,-0.786515 0.20213,-0.02967 0.99632,-0.583553 1.76475,-1.230932 0.76844,-0.647379 1.48069,-1.149491 1.58336,-1.116211 0.82787,0.268353 6.17589,-6.899443 7.86464,-10.540959 1.61446,-3.481365 1.55793,-3.851163 -0.0899,-0.588595 -0.82056,1.62462 -1.67934,3.109424 -1.90841,3.299541 -0.22908,0.190117 0.2982,-1.079911 1.17151,-2.82205 1.67708,-3.345571 2.57463,-5.870481 2.86494,-8.05894 0.22377,-1.686879 0.66854,-1.74777 0.50178,-0.06873 -0.0426,0.429022 -0.0591,0.665242 -0.0383,0.68833 2.1e-4,1.82e-4 0.001,8.91e-4 0.002,10e-4 h 5.2e-4 c 2.3e-4,6.5e-5 0.001,4.91e-4 0.002,5.17e-4 h 5.2e-4 c 2.4e-4,-5.2e-5 10e-4,9e-5 0.002,0 2.6e-4,-1.3e-4 0.001,-8.65e-4 0.002,-10e-4 0.0383,-0.02907 0.14505,-0.441169 0.34468,-1.284159 0.7084,-2.991462 0.63996,-11.942969 -0.11575,-15.106572 -2.04059,-8.542548 -6.93022,-16.371499 -13.16716,-21.08295 -2.07364,-1.5664481 -7.94674,-4.8927821 -8.19691,-4.6426111 l -5.2e-4,5.17e-4 c -1.4e-4,2.22e-4 -9.2e-4,0.0013 -10e-4,0.0015 v 5.17e-4 c -1.1e-4,5.29e-4 -5.1e-4,0.002 -5.1e-4,0.0026 0.006,0.076 0.84509,0.578481 1.90944,1.141015 7.88202,4.1658201 16.86273,15.5528491 18.46658,23.4140751 0.28518,1.397806 -0.2228,0.641935 -0.75706,-1.12603 -0.59234,-1.960137 -3.62813,-7.959667 -5.32061,-10.515607 -2.69728,-4.073355 -7.08557,-7.870385 -12.23905,-10.5895341 -2.49529,-1.316602 -2.79925,-1.767111 -0.36225,-0.536918 0.86358,0.43593 1.57459,0.730044 1.61282,0.668693 1.4e-4,-2.58e-4 9.3e-4,-0.0013 10e-4,-0.0016 3.5e-4,-0.0011 5.1e-4,-0.0033 5.1e-4,-0.0047 0,-0.393407 -5.69993,-2.791359 -7.9375,-3.339331 -1.38245,-0.338555 -2.25654,-0.652511 -1.94251,-0.697631 0.51693,-0.07427 3.94235,0.658844 5.24981,1.123445 0.23049,0.08191 0.35221,0.122702 0.36948,0.112655 l 5.2e-4,-5.17e-4 h 5.2e-4 v -5.17e-4 l 5.1e-4,-5.16e-4 5.2e-4,-5.17e-4 v -3.65e-4 -5.17e-4 -5.17e-4 -5.16e-4 c -0.003,-0.0201 -0.11041,-0.0922 -0.31729,-0.224793 -2.49986,-1.602107 -8.80411,-2.575393 -14.71022,-2.495971 z m 0.23461,0.40876 c 1.10772,0.01878 0.0324,0.310159 -2.82411,0.642855 -5.77667,0.672815 -10.91427,2.384703 -15.61559,5.202783 -2.75927,1.6539711 -5.47238,3.8014111 -5.25239,4.1573691 0.0675,0.109214 -0.43138,0.724273 -1.10898,1.366842 -0.52143,0.494456 -0.87326,0.778708 -0.91622,0.750858 l -5.2e-4,-5.16e-4 -5.1e-4,-5.17e-4 -5.2e-4,-5.17e-4 -5.2e-4,-5.17e-4 c -1.3e-4,-2.22e-4 -3.9e-4,-0.0013 -5.1e-4,-0.0015 -0.006,-0.01324 0.0104,-0.04889 0.0512,-0.108004 0.20037,-0.291042 0.6705,-0.796746 1.04489,-1.123445 0.37414,-0.326699 0.5413,-0.59459 0.37104,-0.595313 -0.92743,-0.0039 -5.41625,6.114195 -7.2569195,9.890869 -1.14557,2.350463 -1.29708,2.569887 -1.29708,1.881539 0,-0.587214 2.3000095,-4.944032 3.6896995,-6.989237 5.51076,-8.110196 16.62546,-14.2216271 27.26655,-14.9928841 0.86923,-0.063 1.4813,-0.08688 1.85053,-0.08061 z M 27.434223,14.908415 c -0.58594,0.01401 -1.58464,0.808474 -2.53421,2.305802 -0.60584,0.955312 -0.75758,1.497514 -0.75758,2.704228 0,1.053185 -0.19915,1.937353 -0.65887,2.924886 -1.07919,2.318232 -0.6635,3.219599 1.63194,3.538802 1.26571,0.176009 4.05401,1.715289 4.05401,2.238106 0,0.140517 -0.23763,0.645437 -0.52813,1.121896 -0.86415,1.417342 -0.76609,1.5318 3.57084,4.156852 2.25557,1.36525 4.10104,2.5252 4.10104,2.57762 0,0.07774 -3.10459,3.67447 -4.38371,5.07876 -0.27981,0.307187 -0.62424,0.274674 -2.21588,-0.208773 -2.07106,-0.629066 -2.22011,-0.601537 -2.79466,0.50953 l -0.3943,0.762744 -1.50068,-0.516247 c -3.62344,-1.246647 -5.69561,-3.898699 -6.09885,-7.805726 -0.17919,-1.736259 -0.56921,-2.167155 -1.36529,-1.509468 -1.00033,0.826434 -1.70729,3.378951 -1.48518,5.361947 0.24375,2.179792 0.2439,2.509785 0.001,4.002856 -0.28867,1.774663 0.33639,2.347144 2.56418,2.347144 2.22994,0 5.90175,1.626777 5.63532,2.497005 -0.5862,1.914662 -0.48869,2.711171 0.36897,3.010152 l 0.82734,0.288354 -0.85111,1.207162 c -2.79837,3.970083 1.30708,10.988993 6.42751,10.988993 0.55025,0 1.07386,0.119064 1.16376,0.264584 0.0995,0.161046 -0.28274,0.261882 -0.97669,0.258382 -0.62706,-0.0032 -2.68184,0.324233 -4.56613,0.727604 -3.87883,0.83034 -4.05323,0.697378 1.97094,1.502234 4.78944,0.63989 7.70797,1.272275 7.56698,1.639693 -0.0893,0.232827 0.71731,0.367842 2.96829,0.496094 1.70003,0.09686 3.20984,0.225084 3.35536,0.285254 h 5.1e-4 c 0.14552,0.06017 1.83033,0.048 3.74448,-0.02687 3.36233,-0.131511 5.42123,-0.407431 9.61698,-1.289844 1.0914,-0.229535 2.28203,-0.429407 2.64583,-0.444417 1.19567,-0.04935 -1.00127,-0.463711 -3.50573,-0.660942 -1.27331,-0.100276 -2.3151,-0.265849 -2.3151,-0.367936 0,-0.328394 0.9033,-0.984981 1.71256,-1.244885 0.49992,-0.160554 0.84375,-0.486008 0.94413,-0.894003 0.11003,-0.447238 0.31274,-0.617229 0.66869,-0.560689 5.35814,0.851145 8.4033,-0.875954 8.77517,-4.976957 0.34305,-3.783238 -3.17939,-8.430313 -5.23689,-6.909139 -0.41646,0.307904 -1.14896,0.560827 -1.6278,0.561723 -0.47884,8.97e-4 -1.16789,0.149725 -1.53169,0.330729 -0.70891,0.352705 -2.38125,0.309831 -2.38125,-0.06098 0,-0.374798 1.39975,-2.387968 1.66036,-2.387968 0.13405,0 0.55935,-0.334515 0.94516,-0.743107 1.14223,-1.209692 2.77175,-1.744639 5.3573,-1.758549 2.45594,-0.01321 3.84705,-0.536103 2.62671,-0.987537 -0.74029,-0.273852 -0.48536,-0.656278 0.59221,-0.888318 3.3543,-0.722303 3.14252,-2.973369 -0.24701,-2.625679 -0.99364,0.101927 -2.34238,0.214464 -2.99723,0.250114 -0.65484,0.03565 -1.45851,0.154658 -1.78594,0.264583 -0.54506,0.182996 -0.59939,0.113498 -0.64079,-0.823206 -0.0249,-0.562675 -0.0715,-1.20127 -0.10387,-1.419551 -0.0324,-0.218281 -0.0718,-0.684953 -0.0873,-1.036629 -0.0155,-0.351675 -0.10626,-0.560838 -0.20206,-0.465088 -0.0958,0.09575 -0.32794,0.04621 -0.51624,-0.110071 -0.29517,-0.244962 -0.63443,-0.209287 -1.69086,0.1788 -0.0728,0.02673 -0.39873,0.135739 -0.7245,0.241846 -0.74685,0.243252 -1.52627,1.491009 -1.92753,3.08715 -0.46595,1.853499 -1.09948,2.302867 -3.53674,2.508891 -2.0429,0.172688 -2.06051,0.180799 -3.02617,1.367358 -0.53429,0.656514 -1.37668,1.655169 -1.87172,2.218986 l -0.9002,1.025261 -0.73381,-1.518771 -0.7338,-1.518253 1.156,-2.526978 c 5.11128,-11.169408 4.97302,-11.606273 -5.51181,-17.388086 -5.35447,-2.952699 -5.52494,-3.024884 -6.15156,-2.61431 -0.35446,0.232252 -0.64767,0.508646 -0.65267,0.614432 -0.0466,1.065333 -0.76291,1.170697 -2.23553,0.328146 -2.47971,-1.41874 -3.47446,-4.593037 -2.39675,-7.647595 0.4429,-1.255316 0.24725,-1.850495 -0.26975,-1.838131 z m 19.85874,3.684529 c -3.98516,0.03038 -4.90887,0.36901 -1.5875,0.581877 8.44464,0.541219 14.88579,4.640391 18.49086,11.768274 l 0.70435,1.393197 -0.60152,0.228926 c -0.33101,0.125721 -0.83836,0.273699 -1.12706,0.329179 -0.40531,0.07789 -0.0436,0.444545 1.5875,1.609204 2.79886,1.99844 2.52006,2.105461 3.46387,-1.324984 0.71491,-2.598459 0.7087,-2.627121 -0.4253,-2.040702 -0.46361,0.239741 -0.8618,0.39696 -0.8847,0.34985 -4.07563,-8.40028 -11.01415,-12.960431 -19.6205,-12.894821 z m -13.84567,5.243608 1.49862,0.845943 c 0.82443,0.465408 3.39462,1.906404 5.71127,3.201872 7.93309,4.436162 7.95964,4.559631 3.28508,15.225944 -0.58992,1.346068 -1.14901,2.442344 -1.24231,2.436544 -0.0933,-0.0058 -0.46715,-0.171022 -0.83095,-0.36742 -0.3638,-0.196397 -2.06045,-0.804643 -3.77032,-1.351338 -3.22116,-1.029895 -3.61866,-1.291847 -2.37608,-1.564763 0.40303,-0.08852 1.08765,-0.40784 1.52136,-0.710034 0.45065,-0.31399 0.56181,-0.469959 0.25941,-0.363802 -0.29104,0.10217 -1.34055,0.290971 -2.33216,0.419613 -0.9916,0.128643 -1.93267,0.314318 -2.09134,0.412378 -0.42332,0.261627 -0.0183,-0.364092 1.1591,-1.790072 0.6583,-0.797313 1.92971,-1.765084 3.64267,-2.772441 1.44735,-0.851157 2.60916,-1.569405 2.58176,-1.596285 -0.0344,-0.0253 -0.53041,0.03565 -1.10794,0.13746 -2.79495,0.492697 -2.57634,-0.431441 0.39687,-1.677934 l 0.92604,-0.38809 -1.05833,0.152445 c -0.58208,0.08404 -1.55711,0.437986 -2.16679,0.786516 l -1.10846,0.633553 -3.51969,-2.129586 c -1.93579,-1.171297 -3.60864,-2.21803 -3.71708,-2.326473 -0.22822,-0.228215 1.39206,-3.084604 3.13624,-5.528861 z m 24.65224,14.943791 c 0.10119,-0.0023 0.17363,0.111121 0.17363,0.295072 0,0.235463 0.11103,0.359156 0.2465,0.275436 0.13546,-0.08373 0.31581,-0.03914 0.40101,0.0987 0.0852,0.137839 0.0337,0.325112 -0.11421,0.416512 -0.38968,0.240828 -0.32962,0.664559 0.0941,0.664559 0.39326,0 0.16956,1.914953 -0.33332,2.854606 v 5.16e-4 c -0.13726,0.256465 -0.94622,1.072106 -1.79782,1.81281 l -1.54823,1.346687 -0.90692,-0.62115 c -0.49874,-0.34174 -1.03245,-0.674957 -1.18597,-0.740007 -0.15352,-0.06505 0.10917,-0.453989 0.58343,-0.864546 0.47425,-0.410557 0.86089,-0.999322 0.85989,-1.308448 -0.003,-0.791985 0.74337,-2.815881 1.12965,-3.061312 0.57763,-0.366986 0.70933,-0.226952 0.54777,0.580844 -0.0984,0.49215 -0.0495,0.79375 0.12867,0.79375 0.48882,0 1.36633,-1.126868 1.36633,-1.754415 0,-0.327775 0.11906,-0.669187 0.26458,-0.759127 0.0318,-0.01967 0.0626,-0.02985 0.0909,-0.03049 z m -29.83849,3.039607 c 0.41847,-0.01376 1.07031,0.204901 2.23087,0.548804 12.37487,3.666968 12.20145,3.591004 13.12944,5.759855 1.68264,3.932593 -2.48942,7.49999 -11.80652,10.094991 -0.41121,0.11453 -0.63517,0.177488 -0.65474,0.198955 l -5.2e-4,5.16e-4 -5.1e-4,5.17e-4 v 5.17e-4 l -5.2e-4,5.17e-4 v 5.16e-4 5.17e-4 5.17e-4 h 5.2e-4 v 5.17e-4 l 5.1e-4,5.17e-4 5.2e-4,5.16e-4 c 0.0253,0.0143 0.3022,-0.02056 0.85318,-0.09198 1.9041,-0.246849 0.75239,0.787911 -1.78594,1.604553 -0.26714,0.08595 -0.22389,0.132311 0.13229,0.142111 0.57645,0.01588 2.09575,-0.323435 2.86443,-0.639755 0.40477,-0.166566 0.36189,0.02099 -0.26459,1.156519 -0.84703,1.535282 -1.07693,1.597012 -3.20032,0.863513 -4.81788,-1.664282 -7.0529,-7.611852 -3.77186,-10.03763 l 0.76739,-0.56689 2.72852,0.895035 c 1.50074,0.492465 3.30419,1.155646 4.00751,1.473295 1.34465,0.607255 1.97005,0.609922 0.83716,0.0036 -1.02175,-0.546822 -0.80185,-0.689529 0.9927,-0.645439 0.61657,0.01515 0.93615,0.01613 0.96377,0.0021 l 5.1e-4,-5.17e-4 5.2e-4,-5.16e-4 h 5.2e-4 l 5.1e-4,-5.17e-4 v -5.17e-4 -5.17e-4 -5.16e-4 l -5.1e-4,-5.17e-4 -5.2e-4,-5.17e-4 c -0.0178,-0.01281 -0.20799,-0.03468 -0.56793,-0.06563 -1.51286,-0.130086 -1.60475,-0.412105 -0.26458,-0.812354 l 0.99219,-0.296622 -0.92604,0.09508 c -0.50932,0.05225 -1.41992,0.178879 -2.02365,0.28112 -1.01538,0.171952 -7.82462,-1.822731 -8.64599,-2.532662 -0.1201,-0.103811 0.19212,-1.007224 0.6935,-2.007629 0.50139,-1.000406 1.18425,-2.592399 1.51774,-3.538285 0.47544,-1.348521 0.58884,-1.86557 1.20044,-1.885674 z m 37.26181,0.393775 c 1.26378,0.02036 1.09623,0.282686 -0.64854,0.701249 -0.7359,0.176541 -1.28648,0.372869 -1.22318,0.436149 0.0633,0.06328 0.84907,-0.05487 1.74563,-0.261999 2.16347,-0.49981 2.01962,0.01715 -0.22066,0.793233 -1.98102,0.686267 -2.14729,0.822279 -1.54461,1.262972 0.84132,0.61518 0.48499,0.751857 -1.49345,0.572575 -1.78454,-0.161711 -2.13366,-0.107079 -3.97598,0.624768 -2.7903,1.108425 -3.20315,0.805814 -1.0759,-0.788066 0.65678,-0.492103 1.36311,-1.152995 1.56993,-1.468644 0.70787,-1.080348 2.20898,-1.609115 5.13147,-1.808675 0.73396,-0.05012 1.31403,-0.07035 1.73529,-0.06356 z m -14.12679,2.89078 c 1.11305,0.03211 2.19662,0.572075 3.16622,1.676383 0.4645,0.529026 0.73087,1.05957 0.62218,1.239718 -0.17131,0.283936 -3.7315,5.183048 -3.9641,5.454964 -0.0532,0.06214 -0.28246,-0.116456 -0.51004,-0.396875 -0.39744,-0.489721 -0.40709,-0.483413 -0.24495,0.151929 0.57214,2.241938 0.50014,2.86966 -0.50694,4.435388 -0.36906,0.573795 -0.5619,0.929181 -0.53744,0.972033 1.5e-4,2.24e-4 8.7e-4,0.0013 10e-4,0.0016 l 5.2e-4,5.16e-4 5.2e-4,5.17e-4 5.1e-4,5.17e-4 h 5.2e-4 c 2.4e-4,1.01e-4 0.001,9.53e-4 0.002,10e-4 0.0189,0.0043 0.0743,-0.04313 0.16743,-0.148312 0.33574,-0.379234 0.74471,-0.915015 0.90899,-1.190625 0.44229,-0.742058 0.99508,1.474519 0.79892,3.203422 -0.12122,1.06836 -0.0922,1.222009 0.15038,0.799951 0.1652,-0.287442 0.29033,-1.280212 0.27853,-2.206067 -0.0256,-2.004791 0.1501,-1.85443 1.72083,1.472262 0.53244,1.127674 1.01068,2.136573 1.06298,2.24224 0.0523,0.105667 -0.38983,0.270006 -0.98288,0.364836 -0.59305,0.09483 -1.07959,0.30592 -1.08159,0.469222 -0.003,0.284178 -1.64229,1.487765 -2.02623,1.487765 -0.10162,0 -0.7113,0.254783 -1.35496,0.566373 -3.78509,1.832332 -9.27658,0.130434 -11.17709,-3.463871 -0.46496,-0.879281 -0.49708,-0.896419 -0.50798,-0.267684 -0.006,0.369413 0.2243,1.135159 0.51314,1.701705 0.89131,1.748247 -0.006,1.62943 -1.3472,-0.178284 -0.46379,-0.625275 -0.75247,-0.89824 -0.64182,-0.607198 0.58224,1.531519 0.55699,1.598851 -0.3545,0.949813 l -0.8475,-0.603581 1.35444,-2.554366 c 1.71485,-3.234269 3.80445,-5.465522 2.90629,-3.10317 -0.1496,0.393458 -0.26594,1.154107 -0.25994,1.690337 l 0.0114,0.975134 0.52658,-0.996839 c 0.77786,-1.473641 3.38714,-3.274716 3.05977,-2.112015 -0.0717,0.254661 -0.19767,0.879739 -0.27957,1.389062 -0.18183,1.130567 -0.0534,0.777045 1.68465,-4.634859 1.80747,-5.627962 4.84293,-8.864976 7.68738,-8.782926 z m 7.32617,6.02547 c 0.31352,0.0048 0.34468,0.156715 0.34468,0.589111 0,0.370941 0.0724,0.862773 0.16072,1.092956 0.11202,0.291902 0.007,0.41858 -0.34675,0.41858 -0.49888,0 -2.98897,2.615329 -2.98897,3.139343 0,0.145569 0.3266,0.302766 0.72554,0.348816 1.32887,0.15338 0.98277,1.803507 -0.37827,1.803507 -0.35555,0 -0.90688,-0.133805 -1.22473,-0.297139 -0.4749,-0.244023 -0.51932,-0.234831 -0.24908,0.05116 0.26418,0.279567 0.21619,0.467768 -0.24443,0.958081 -0.76877,0.818312 -0.85172,0.788692 -1.42317,-0.513663 -0.27138,-0.618464 -0.76376,-1.544144 -1.09399,-2.056722 -0.65731,-1.020266 -0.4586,-3.033091 0.27182,-2.752804 0.40708,0.156211 1.41143,-0.88272 1.54047,-1.593701 0.0796,-0.438499 0.31184,-0.515146 1.54771,-0.510046 0.79978,0.0033 1.52315,-0.09579 1.60765,-0.220659 0.0845,-0.124866 0.59055,-0.298349 1.12448,-0.384989 0.2829,-0.04591 0.48381,-0.07401 0.62632,-0.07183 z"
       style="fill:#000000"
       id="path1" />
  </g>
</svg>
