<?xml version="1.0" encoding="UTF-8" standalone="no"?>
<!-- Created with Inkscape (http://www.inkscape.org/) -->

<svg
   width="83.134903mm"
   height="83.134903mm"
   viewBox="0 0 83.134903 83.134903"
   version="1.1"
   id="svg1"
   sodipodi:docname="kansetsu-waza.svg"
   inkscape:version="1.4.3 (0d15f75, 2025-12-25)"
   xmlns:inkscape="http://www.inkscape.org/namespaces/inkscape"
   xmlns:sodipodi="http://sodipodi.sourceforge.net/DTD/sodipodi-0.dtd"
   xmlns="http://www.w3.org/2000/svg"
   xmlns:svg="http://www.w3.org/2000/svg">
  <sodipodi:namedview
     id="namedview1"
     pagecolor="#ffffff"
     bordercolor="#000000"
     borderopacity="0.25"
     inkscape:showpageshadow="2"
     inkscape:pageopacity="0.0"
     inkscape:pagecheckerboard="0"
     inkscape:deskcolor="#d1d1d1"
     inkscape:document-units="mm"
     inkscape:zoom="1.3772587"
     inkscape:cx="307.49488"
     inkscape:cy="205.84368"
     inkscape:window-width="1920"
     inkscape:window-height="991"
     inkscape:window-x="-9"
     inkscape:window-y="-9"
     inkscape:window-maximized="1"
     inkscape:current-layer="layer1" />
  <defs
     id="defs1" />
  <g
     inkscape:label="Livello 1"
     inkscape:groupmode="layer"
     id="layer1"
     transform="translate(-0.13584134,4.6186056)">
    <path
       d="m 42.204148,4.5570035 c -7.39669,-0.0933 -14.7715,1.96316 -21.08037,6.1830895 -15.6726203,10.483252 -19.8973433,31.744152 -9.49916,47.803802 1.59775,2.46771 1.8038,2.47406 0.46302,0.0145 -0.57512,-1.05503 -1.04755,-2.13228 -1.04955,-2.39417 -0.002,-0.26189 -0.19438,-0.84498 -0.42736,-1.29553 -0.3276,-0.63354 -0.34264,-0.79001 -0.0662,-0.69091 0.1966,0.0705 1.23048,0.41048 2.29753,0.75551 1.47902,0.47823 2.02546,0.79166 2.29805,1.31878 0.19666,0.3803 0.54365,0.84596 0.77153,1.03508 0.57577,0.47784 0.51766,0.75597 -0.18087,0.86351 -0.45,0.0693 -0.20781,0.24772 0.99219,0.73174 1.82733,0.73704 5.87009,0.88016 9.88777,0.35037 3.40258,-0.44868 6.32983,0.42066 8.23619,2.44584 l 0.92604,0.98392 -1.19062,-0.18035 c -1.88011,-0.28483 -1.00786,0.19599 2.91041,1.60404 l 3.57188,1.28364 6.74687,0.007 c 6.02094,0.006 6.86074,0.0603 7.80521,0.50074 0.58208,0.27145 1.59412,0.64782 2.24896,0.83664 0.65485,0.18883 1.64707,0.51197 2.20503,0.71779 l 1.01441,0.37414 -1.27899,0.86144 c -1.34768,0.90766 -0.91995,0.90125 1.20561,-0.0181 0.86437,-0.37385 1.25176,-0.42815 1.5136,-0.21084 0.9918,0.82312 4.45568,-0.32867 6.04356,-2.0097 4.65326,-4.92622 1.92831,-12.30209 -4.54494,-12.30209 h -1.8588 l -0.16847,-0.84129 c -0.41081,-2.05409 -2.75948,-4.67497 -5.38003,-6.00377 -1.01026,-0.51228 -1.69886,-1.07605 -2.02882,-1.6614 -0.27469,-0.4873 -0.91257,-1.32063 -1.41748,-1.85208 l -0.91777,-0.96635 0.82217,-2.43293 c 1.0394,-3.07558 1.03038,-4.05399 -0.0744,-8.02328 -0.49318,-1.77189 -1.02762,-3.9917 -1.18753,-4.93252 -0.39943,-2.35011 -1.39609,-4.27337 -2.75487,-5.31647 l -1.12086,-0.86041 0.53279,-1.14928 c 0.29283,-0.63214 0.6842,-1.14917 0.86971,-1.14929 0.97478,-6e-4 0.92418,-3.870412 -0.0765,-5.848222 -2.65585,-5.2493095 -10.11047,-4.2355895 -11.32179,1.53944 -0.17764,0.84691 -0.47573,1.52339 -0.70848,1.60869 -0.22095,0.0809 -0.76978,0.42409 -1.22008,0.76222 -0.47588,0.35735 -1.18933,0.61444 -1.70326,0.61444 -5.69265,0 -9.96418,3.750532 -10.45621,9.180832 -0.17901,1.9756 -1.00827,6.21521 -1.43557,7.33909 -0.33174,0.87256 -0.34521,2.26752 -0.0269,2.77037 0.33157,0.52376 -0.15386,1.54405 -1.33325,2.80242 -1.42768,1.52327 -2.94715,4.32453 -2.75694,5.08237 0.27854,1.10979 -0.52545,2.19367 -1.62677,2.19367 -0.7893,0 -1.15458,0.20408 -2.04329,1.1405 -0.59532,0.62729 -1.69254,1.63809 -2.43809,2.24585 -0.74555,0.60776 -1.50408,1.46376 -1.68569,1.90221 -0.49688,1.19959 -0.7085003,0.99896 -1.4624403,-1.38596 C 2.0696027,28.822795 17.281608,7.1992835 40.403138,6.3096435 c 25.1712,-0.96851 42.1425,23.2162015 33.44188,47.6554915 -0.94821,2.66344 -0.55014,2.46827 0.79995,-0.39222 4.16255,-8.81928 3.69665,-21.33217 -1.11207,-29.87312 -0.53255,-0.94589 -0.94688,-1.7933 -0.92088,-1.8836 0.026,-0.0903 -0.37342,-0.65583 -0.8878,-1.25677 -0.51438,-0.60093 -0.79945,-1.09296 -0.63355,-1.09296 1.10891,0 -4.58091,-6.072902 -7.67602,-8.192782 -6.39525,-4.3801995 -13.8139,-6.6230795 -21.21059,-6.7163895 z m -3.15847,11.7341695 c 0.59493,0 0.82838,0.49118 0.82838,1.7415 0,0.497422 0.0532,0.904332 0.11834,0.904332 0.33599,0 2.70282,-1.396542 2.97243,-1.753892 0.27485,-0.36429 0.46479,-0.2985 1.56837,0.54415 1.48265,1.132092 2.2904,1.383252 3.1657,0.984442 0.74696,-0.34034 0.81736,-0.0919 0.35192,1.24333 -0.21084,0.6048 -0.51819,0.89104 -1.12448,1.048 -0.92204,0.23871 -1.4859,1.09043 -1.4919,2.25412 -0.004,0.70152 -0.0582,0.7384 -0.86403,0.58395 -0.6879,-0.13185 -0.76728,-0.10685 -0.39687,0.12454 0.65943,0.41193 0.57323,0.85508 -0.13229,0.68006 -0.20208,-0.0499 -0.32216,-0.0675 -0.33952,-0.0532 -1.9e-4,1.9e-4 -8.8e-4,0.001 -0.001,0.002 l -5.1e-4,5.2e-4 v 5.2e-4 c -6e-5,2.3e-4 -5e-4,10e-4 -5.2e-4,0.002 1e-5,2.5e-4 -5e-5,0.001 0,0.002 8e-5,2.7e-4 4e-4,0.001 5.2e-4,0.002 0.006,0.0111 0.0359,0.0301 0.0925,0.0558 0.27147,0.12308 0.24815,0.26693 -0.10697,0.65939 -1.12696,1.24473 -3.2224,-0.0213 -4.47569,-2.70423 -0.6845,-1.46534 -0.69108,-1.4363 -0.26769,1.15497 0.37892,2.31907 -0.79821,0.12537 -1.34823,-2.51251 -0.40372,-1.93624 -0.14621,-3.05507 0.45733,-1.98541 0.14369,0.25466 0.38908,0.46302 0.54519,0.46302 0.18957,0 0.19727,-0.10978 0.0232,-0.33072 -0.80467,-1.02162 -0.51867,-3.108862 0.42581,-3.108862 z m -1.71824,0.63358 c 0.18469,0.004 0.13203,0.25057 -0.20464,0.73123 -0.56577,0.807762 -0.53423,2.090522 0.11369,4.612632 0.2957,1.15107 0.83647,3.38473 1.20148,4.96404 l 0.66353,2.87166 -0.72709,0.9648 c -1.01476,1.34654 -3.04153,3.47834 -3.30678,3.47834 -0.12145,0 -0.22066,-0.22334 -0.22066,-0.49661 0,-0.27327 -0.17859,-0.92452 -0.39687,-1.44694 -0.21828,-0.52242 -0.39687,-1.25107 -0.39687,-1.61954 0,-0.39486 -0.13581,-0.6431 -0.33073,-0.6041 -0.23827,0.0476 -0.31014,-0.32235 -0.25684,-1.32291 0.044,-0.82451 -0.0367,-1.38907 -0.19843,-1.38907 -0.14987,0 -0.27396,-0.32742 -0.27596,-0.7276 -0.002,-0.40018 -0.30187,-1.32291 -0.66662,-2.05052 -0.28702,-0.57259 -0.44707,-0.8737 -0.47956,-0.87127 -2.7e-4,7e-5 -0.001,4e-4 -0.001,5.2e-4 l -5.2e-4,5.2e-4 c -2e-4,2.1e-4 -8.4e-4,0.001 -0.001,0.002 -0.023,0.0422 0.14106,0.53336 0.49403,1.53014 0.50158,1.4164 0.71929,2.91041 0.42426,2.91041 -0.1423,0 -0.33724,-0.24679 -0.43304,-0.5488 -0.42596,-1.34209 -0.3213,-0.1787 0.12195,1.35547 0.74282,2.57108 0.90613,4.84905 0.33021,4.60179 -0.24538,-0.10535 -0.80314,-0.23744 -1.23971,-0.29404 -0.23483,-0.0304 -0.36325,-0.0368 -0.37879,-0.0134 -1.3e-4,2.4e-4 -4.1e-4,10e-4 -5.2e-4,0.002 -8e-5,2.5e-4 -9.7e-4,10e-4 -0.001,0.002 -4e-5,2.6e-4 2e-5,0.001 0,0.002 4.3e-4,0.0411 0.25237,0.14944 0.77722,0.34158 0.65484,0.23973 1.63167,0.8332 2.17041,1.31878 0.53871,0.48557 1.47638,1.21167 2.08411,1.61385 1.00085,0.66232 1.05837,0.75722 0.60823,1.00459 -1.62548,0.89328 -4.50353,4.68123 -4.18579,5.50923 0.13686,0.35667 0.28262,0.33653 1.11311,-0.15348 0.52566,-0.3102 0.86603,-0.41901 0.75654,-0.24185 -0.79467,1.28581 -1.66205,1.17876 -3.5295,-0.43563 -1.71323,-1.48108 -4.57336,-4.37297 -4.57336,-4.62452 0,-0.0654 -0.22432,-1.23362 -0.49868,-2.59571 -0.27437,-1.36208 -0.70966,-3.93094 -0.96687,-5.70818 l -0.46767,-3.23133 0.58911,-1.79575 c 1.18007,-3.59686 4.01973,-5.63889 8.76226,-6.30143 l 1.20044,-0.167432 -0.0388,1.807642 c -0.0129,0.60581 -0.008,0.94517 0.0103,0.96997 v 5.2e-4 l 5.2e-4,5.1e-4 h 5.1e-4 v 5.2e-4 h 5.2e-4 5.2e-4 5.1e-4 5.2e-4 l 5.2e-4,-5.2e-4 v -5.1e-4 c 0.0112,-0.0135 0.027,-0.12888 0.0455,-0.35399 0.1596,-1.94174 0.3033,-2.27735 1.29656,-3.034952 0.50084,-0.38201 0.84835,-0.56815 1.01131,-0.56483 z m 10.23762,4.973862 c 0.21336,-0.0146 0.50622,0.20146 1.02526,0.6382 1.14647,0.96469 2.02714,2.6079 2.39624,4.47002 0.40713,2.05394 1.56262,6.64721 1.88619,7.49825 0.49359,1.29826 0.29601,3.28589 -0.56948,5.73091 -1.09105,3.08224 -1.29695,3.43436 -1.31464,2.24896 -0.0279,-1.86474 -1.45951,-3.96875 -2.70062,-3.96875 -1.45395,0 -1.44099,-1.86711 0.0186,-2.65565 0.49177,-0.26567 0.72596,-0.394 0.72399,-0.43253 -4e-5,-2.8e-4 -4.5e-4,-10e-4 -5.1e-4,-0.002 -10e-5,-2.6e-4 -4e-4,-0.001 -5.2e-4,-0.002 -1.5e-4,-2.4e-4 -8.7e-4,-10e-4 -10e-4,-0.002 l -5.2e-4,-5.2e-4 -5.2e-4,-5.2e-4 c -0.0276,-0.0222 -0.21715,0.0147 -0.55448,0.0847 -0.73705,0.15303 -0.76331,0.13288 -0.37104,-0.28112 0.23235,-0.24522 1.00626,-0.54398 1.71979,-0.66352 l 1.29708,-0.21704 -1.22111,-0.031 c -0.85585,-0.0218 -1.42244,0.12675 -1.89395,0.49764 -0.94163,0.74067 -0.98598,0.70156 -0.98598,-0.87281 0,-0.77126 -0.12367,-1.52616 -0.27492,-1.67742 -0.19029,-0.19029 -0.0774,-0.67505 0.3669,-1.57406 0.92184,-1.86502 1.11804,-2.86964 0.25373,-1.29966 l -0.72863,1.32291 -0.15038,-1.05833 -0.15038,-1.05833 -0.19999,1.06401 c -0.29497,1.56547 -0.51633,1.8335 -1.20871,1.46296 -1.09224,-0.58455 -3.10088,0.13743 -3.74861,1.34772 -0.33651,0.62877 -0.21119,1.83966 0.38499,3.71657 l 0.39429,1.24076 -0.92397,0.54518 c -0.97453,0.57499 -1.95182,0.7197 -1.95182,0.28887 0,-0.1414 -0.14883,-0.20716 -0.33073,-0.14676 -0.1819,0.0604 -0.61014,-0.24423 -0.95188,-0.67696 l -0.62167,-0.78651 1.26246,-1.51412 1.26245,-1.51464 -1.49241,1.43815 -1.49242,1.43764 -0.60358,-0.50901 c -0.3321,-0.2799 -0.63406,-0.52033 -0.67076,-0.53433 -0.0366,-0.0139 0.41149,-0.52781 0.99581,-1.14205 1.39101,-1.46226 3.55486,-4.54194 4.50721,-6.4146 0.67599,-1.32924 0.86039,-1.50272 1.69706,-1.60042 0.83615,-0.0976 0.92403,-0.0506 0.8077,0.43253 -0.0718,0.29827 0.0406,0.17177 0.2496,-0.28112 0.20901,-0.45289 0.96669,-1.31436 1.68362,-1.91461 0.71694,-0.60025 1.45188,-1.45032 1.63349,-1.88877 0.20135,-0.4861 0.33545,-0.73159 0.5488,-0.74621 z m -23.34276,8.57567 c 0.1787,-0.0193 0.35392,0.93763 0.67696,3.05977 0.64068,4.20877 0.81382,4.77838 1.7601,5.79137 v 5.2e-4 c 1.12961,1.20921 0.83014,1.21262 -0.9679,0.0119 -2.49166,-1.66393 -3.40192,-3.26104 -2.67529,-4.69532 0.21068,-0.41586 0.54008,-1.56022 0.73174,-2.54248 0.20342,-1.04253 0.33975,-1.61117 0.47439,-1.62575 z m 19.89956,0.89607 c 0.17747,-0.005 0.41318,0.37735 0.53899,1.15135 0.19086,1.17417 0.42966,1.47187 0.67282,0.8382 0.0992,-0.25839 0.0416,-0.69201 -0.12815,-0.96377 -0.31881,-0.5105 -0.14194,-0.63514 0.40669,-0.28629 0.57782,0.36741 0.86434,1.55738 0.59841,2.48461 -0.13818,0.48181 -0.25115,1.19829 -0.25115,1.59266 0,0.67544 -0.0652,0.71416 -1.12447,0.66456 -0.61846,-0.029 -1.38572,0.0423 -1.70533,0.15813 -0.52564,0.19053 -0.62034,0.0781 -0.99218,-1.17409 -0.47232,-1.59048 -0.54244,-3.40444 -0.13126,-3.40444 0.1541,0 0.1953,-0.13791 0.0915,-0.30592 -0.1179,-0.19081 -0.0726,-0.23326 0.12092,-0.11369 0.17007,0.1053 0.24497,0.29653 0.16537,0.4253 -0.0796,0.12877 -0.0543,0.56722 0.0563,0.9741 0.19548,0.71885 0.20522,0.71065 0.33899,-0.29766 0.16792,-1.26581 0.79892,-1.62542 0.79892,-0.45527 0,0.4401 0.11771,0.8728 0.26148,0.9617 0.1667,0.10303 0.19985,-0.28771 0.0915,-1.07849 -0.10616,-0.77453 0.0132,-1.16624 0.19069,-1.17099 z m 0.38086,5.8803 c 1.22348,-0.048 2.26534,0.59863 3.00033,1.92753 0.25472,0.46051 0.29324,0.46862 0.30024,0.0656 0.0124,-0.71328 0.68192,-0.5498 1.44022,0.35139 0.89295,1.06122 0.88348,1.10398 -0.46715,2.21072 -0.81358,0.66666 -1.41562,0.94475 -2.05052,0.94775 -0.49433,0.002 -1.07725,0.12668 -1.29553,0.27647 -0.3173,0.21774 -0.26426,0.26441 0.26458,0.23151 0.3638,-0.0226 0.79744,-0.028 0.96377,-0.0119 0.30502,0.51466 1.18582,-0.22203 2.19418,0.37362 0.89501,0.5287 2.15528,0.58548 2.62568,0.11834 0.34261,-0.34021 2.68304,1.78167 2.68304,2.43241 0,0.35498 5.5723,3.81509 6.64972,6.25078 0.63383,1.43288 0.56813,1.58256 -0.45889,1.04697 -0.42183,-0.21998 -1.06453,-0.38866 -1.42833,-0.37466 -0.27393,0.0105 -0.42118,0.0203 -0.43305,0.0439 l -5.2e-4,5.1e-4 v 5.2e-4 c -4e-5,2.1e-4 -4.9e-4,0.001 -5.1e-4,0.002 v 5.2e-4 5.2e-4 c 0.005,0.0291 0.18948,0.0785 0.56637,0.16949 1.07579,0.25962 1.98437,0.77023 1.98437,1.11518 0,0.17199 -0.26481,0.21739 -0.67179,0.11524 -1.81,-0.45428 -4.11301,1.57638 -6.05751,5.34128 -1.39922,2.70916 -1.94396,3.31239 -2.88044,3.1905 -0.66052,-0.086 -0.66016,-0.086 0.4594,-1.54668 2.6117,-3.40748 -1.03611,0.52762 -1.03611,0.52762 -0.76272,0.85398 -2.10535,1.45949 -4.33204,1.9544 -5.31192,1.18067 -7.76603,0.2601 -13.19661,-4.95215 -3.56005,-3.41692 -3.47198,-3.65329 3.71657,-10.00714 2.3674,-2.09251 4.83768,-3.4362 5.22655,-2.84479 l 0.71417,-0.21342 c -0.0416,-0.28364 -0.0769,-0.56467 -0.10593,-0.84285 l -0.16795,-1.60765 h 1.05936 c 0.97538,0 1.04967,-0.0506 0.93793,-0.6351 -0.10197,-0.53346 0.009,-0.66321 0.69505,-0.81391 0.44905,-0.0986 0.8875,-0.29392 0.9741,-0.43408 0.0975,-0.15786 -0.12784,-0.17762 -0.59221,-0.0517 -0.41238,0.11187 -1.07725,0.19326 -1.47743,0.18086 -0.82517,-0.0255 -0.87832,0.0975 -0.36225,0.83509 0.51843,0.74091 -1.71299,0.80864 -4.06952,0.12351 -0.94589,-0.27501 -2.52347,-0.69847 -3.50573,-0.94051 -2.02797,-0.49971 -1.96772,-0.42153 -1.23817,-1.60197 1.08719,-1.75911 1.73931,-2.00162 3.61322,-1.34514 l 1.62212,0.56793 1.01131,-0.8015 c 1.11289,-0.88226 2.1743,-1.33938 3.12591,-1.37666 z m -22.48752,2.28513 1.19631,1.14773 c 0.65811,0.63145 2.28982,1.6981 3.62562,2.36988 2.23032,1.12165 2.70654,1.54823 1.72702,1.54823 -0.20592,0 -1.04945,-0.39393 -1.8743,-0.8754 -1.53894,-0.8981 -3.10871,-1.58536 -2.06241,-0.90279 0.27256,0.17781 1.34412,0.93447 2.38125,1.68155 1.86842,1.3459 3.84066,2.35776 3.90106,2.00143 0.0168,-0.10172 0.0156,-0.27873 -0.004,-0.39377 -0.12098,-0.72497 0.58146,-1.28988 1.41076,-1.1343 0.54592,0.10241 1.14647,0.0149 1.63091,-0.23771 0.42174,-0.21994 1.28544,-0.40064 1.91927,-0.40153 0.84666,-0.001 1.36474,-0.18038 1.95181,-0.67438 0.43952,-0.36982 0.933,-0.62824 1.09658,-0.57464 0.31775,0.10415 1.48776,1.72049 1.48776,2.05517 0,0.30655 -2.14575,1.48697 -3.06131,1.68414 -1.18709,0.25564 -2.53862,1.48645 -3.40548,3.10213 -0.41813,0.77935 -1.27899,1.9793 -1.91306,2.66651 -0.63407,0.68721 -1.25917,1.52906 -1.38906,1.87069 -0.2255,0.59312 -2.98625,1.54317 -3.36982,1.15961 -0.32854,-0.32854 0.45601,-1.18298 0.96428,-1.05006 0.55242,0.14446 0.76585,-0.32953 0.22893,-0.5085 -1.24222,-0.41407 1.32151,-4.00755 3.64267,-5.10563 0.81009,-0.38324 1.41134,-0.75856 1.33584,-0.83406 -0.11494,-0.11494 -2.32075,0.46663 -3.21944,0.84905 -0.14553,0.0619 -1.03849,-0.54934 -1.98438,-1.35858 -1.85333,-1.5856 -3.44342,-2.59939 -4.49792,-2.86752 -0.41059,-0.1044 -0.26007,0.0471 0.39688,0.39894 1.30334,0.69799 2.80987,2.09522 2.60914,2.42001 -0.0817,0.13221 0.016,0.20268 0.21756,0.15658 0.50552,-0.11568 2.43598,1.51889 2.21537,1.87585 -0.0982,0.15894 -0.49879,0.30298 -0.89039,0.31988 -0.44795,0.0193 -0.54039,0.0753 -0.24908,0.15141 0.86173,0.22519 0.38554,1.2606 -1.95492,4.24936 -0.71221,0.9095 -1.18193,1.65364 -1.04386,1.65364 0.13807,0 0.51964,-0.37785 0.84853,-0.83974 0.69969,-0.98262 0.977,-0.60879 0.39015,0.52607 -0.50597,0.97843 -1.82434,2.10248 -3.20083,2.73006 -5.05008,2.30157 -10.68164,-4.15757 -7.25073,-8.3168 1.06612,-1.29244 1.21794,-1.10842 0.4868,0.59117 -0.32098,0.74616 -0.50808,1.43238 -0.41548,1.52498 0.0926,0.0926 0.16846,-0.0216 0.16846,-0.25374 0,-0.23214 0.16266,-0.58485 0.36174,-0.78393 0.19909,-0.19909 0.453,-0.65378 0.56379,-1.01079 0.35031,-1.12884 1.99137,-4.31232 2.70681,-5.25032 l 0.68833,-0.90227 -0.70538,0.17673 c -0.38784,0.0974 -0.70487,0.11336 -0.70487,0.0357 0,-0.31313 1.61389,-2.96716 2.30477,-3.79047 z m -5.41414,8.06565 c 0.11718,-0.002 0.21676,0.0318 0.29146,0.10646 0.32106,0.32108 0.004,1.12706 -0.44287,1.12706 -1.02095,0 -2.77629,3.49045 -2.38125,4.73511 0.15619,0.4921 0.0749,0.55447 -0.70073,0.53537 -1.04255,-0.0256 -2.59778,-0.65736 -2.59778,-1.05523 0,-0.56864 1.43797,-2.1432 2.55488,-2.79776 0.63196,-0.37035 1.39527,-1.01972 1.69654,-1.44281 0.51966,-0.7298 1.16125,-1.20022 1.57975,-1.2082 z m 27.70787,3.55065 -0.79633,0.26149 0.002,0.006 -1.50431,1.32395 c -1.40969,1.24087 -1.54493,1.30211 -2.15077,0.96996 -0.93752,-0.51394 -2.65977,-0.723 -3.4246,-0.41548 -0.55203,0.22193 -0.38792,0.26867 0.99219,0.28267 1.66695,0.0169 2.04283,0.27321 1.19063,0.81236 -0.37092,0.23466 -0.27461,0.26321 0.48472,0.14211 0.72658,-0.11587 1.05484,-0.0335 1.40457,0.35295 0.47443,0.52428 1.45893,0.48226 1.51463,-0.0646 0.0167,-0.16492 0.0465,-0.42544 0.0661,-0.57877 0.0807,-0.63164 1.5216,-2.04563 1.80041,-1.76682 0.1472,0.24363 0.80227,-0.0513 0.78497,-0.33538 -0.1281,-0.33521 -0.24918,-0.66549 -0.36381,-0.99064 z m 14.64717,4.28915 c 0.15902,-3.1e-4 0.20958,0.0966 0.077,0.31109 -0.48203,0.77994 -0.3837,1.82479 0.14107,1.49706 0.6633,-0.41423 1.86656,0.10106 1.86656,0.79944 0,0.5884 -0.79523,1.36994 -1.39423,1.36994 -0.52502,0 -0.82822,0.43201 -0.46199,0.65836 0.1479,0.0914 0.26872,0.38529 0.26872,0.65267 0,0.26738 0.41355,0.84882 0.9188,1.29243 l 0.91829,0.80667 -0.40824,0.97823 c -0.37759,0.90361 -0.36515,1.50667 0.0537,2.59829 0.19813,0.5163 -0.0721,0.51972 -1.00666,0.0124 -0.61375,-0.33316 -0.74008,-0.61326 -0.89503,-1.98283 -0.21417,-1.89302 -0.40037,-1.90137 -0.41497,-0.0186 -0.0111,1.43092 -0.0761,1.49573 -1.1069,1.10381 -0.50031,-0.19022 -0.69839,-0.51444 -0.84801,-1.38906 -0.15792,-0.92315 -0.23489,-1.04001 -0.40411,-0.61185 l -0.20929,0.52916 -0.0393,-0.52916 c -0.0217,-0.29134 -0.0996,-0.3805 -0.17312,-0.19844 -0.17219,0.42678 -0.65887,0.42107 -1.25522,-0.015 -0.49313,-0.36058 0.60768,-3.51121 1.39733,-3.99924 0.16361,-0.10112 0.29766,-0.31033 0.29766,-0.46508 0,-0.17744 -0.14662,-0.15965 -0.39688,0.0481 -0.21829,0.18113 -0.39687,0.25267 -0.39687,0.15917 0,-0.40565 1.34463,-2.24722 2.11253,-2.89337 0.52697,-0.44341 1.09405,-0.71366 1.35909,-0.71416 z"
       style="fill:#000000"
       id="path1" />
  </g>
</svg>
